<svg xmlns="http://www.w3.org/2000/svg" viewBox="0 0 800 633.036" fill="none" role="img" aria-label="A focused trader at their desk">
  <g transform="translate(-525.513 -317.127)">
    <path d="M844.387,579.111H199.305a.805.805,0,1,1,0-1.611H844.387a.805.805,0,0,1,0,1.611Z" transform="translate(480.321 371.052)" fill="#e6e6e6"/>
    <path d="M189.374,305.682l-39.42-149.05-4.564-17.206,4.28-3.973,73.469-36.4,104.985,2.614,61.634,31.642.333,23.321,3.043,210.114,12.3,51.574H179.93l17.508-82.138Z" transform="translate(724.716 530.232)" fill="#08AEAA"/>
    <path d="M531.448,721.454H472.681L456.456,604.3,460.7,459.767l.586-19.663,11.218-3.66a71.219,71.219,0,0,1,20.471,23.323c7.21,12.549,13.2,30.532,11.709,54.711,0,0,1.331,28.552.063,47.565C503.879,575.035,519.042,657.157,531.448,721.454Z" transform="translate(641.967 227.099)" fill="#08AEAA"/>
    <path d="M407.945,605.792l-.206,1.489L392.148,719.919H324.571c5.419-63.821,11.788-143.614,10.933-156.4-1.267-19,.063-47.565.063-47.565-1.616-26.191,5.562-45.077,13.531-57.721a76.755,76.755,0,0,1,14.656-17.207,40.866,40.866,0,0,1,3.993-3.09l11.218,3.644,2.931,16.652Z" transform="translate(506.351 228.632)" fill="#08AEAA"/>
    <path d="M369.517,408.161a72.774,72.774,0,1,0,72.774-72.775h0A72.593,72.593,0,0,0,369.517,407.8Q369.516,407.98,369.517,408.161Z" transform="translate(552.568 123.181)" fill="#9f616a"/>
    <path d="M687.059,662.516h0a13.532,13.532,0,0,1-13.532,13.533H311.533A13.533,13.533,0,0,1,298,662.516h0a13.533,13.533,0,0,1,13.533-13.533h4.018a9.281,9.281,0,0,1-.356-2.478V461.7a11.753,11.753,0,0,1,11.753-11.753H658.112A11.753,11.753,0,0,1,669.865,461.7v184.81a8.748,8.748,0,0,1-.356,2.478h4.018A13.533,13.533,0,0,1,687.059,662.516Z" transform="translate(502.626 274.114)" fill="#090814"/>
    <path d="M421.983,528.135A20.919,20.919,0,1,1,442.9,507.217a20.919,20.919,0,0,1-20.919,20.919Zm0-38.332A17.414,17.414,0,1,0,439.4,507.217,17.413,17.413,0,0,0,421.983,489.8Z" transform="translate(580.185 301.473)" fill="#fff"/>
    <circle cx="19.166" cy="19.166" r="19.166" transform="translate(983.002 789.526)" fill="#fff"/>
    <path d="M110.076,96.233,98.786,93.41S90.319,45.429,70.561,51.074,0,62.363,0,39.784,47.982-2.553,76.206.27,152.412,11.559,149.59,53.9c-1.425,21.38-11.426,60.525-11.426,60.525L121.272,135.07l5.811-22.754Z" transform="translate(940.178 438.909) rotate(10)" fill="#090814"/>
  </g>
</svg>
